<svg xmlns="http://www.w3.org/2000/svg" viewBox="0 0 1280 328" width="1280" height="328" role="img" aria-labelledby="title desc">
  <title id="title">ExoRail — Human-in-the-project</title>
  <desc id="desc">When Human-in-the-loop is not enough, you need Human-in-the-project. Agents have sessions; projects have lifecycles. Project intent, Results and decision history stay in the repository when the agent, model, harness or provider changes.</desc>
  <style>
    text { font-family: system-ui, -apple-system, "Segoe UI", Roboto, Arial, sans-serif; }
    .word { font-size: 34px; font-weight: 750; letter-spacing: -1.2px; fill: #102b46; }
    .category { font-size: 16px; font-weight: 700; letter-spacing: 1.8px; fill: #53677a; }
    .hero { font-size: 44px; font-weight: 750; letter-spacing: -1.1px; fill: #102b46; }
    .tagline { font-size: 24px; font-weight: 600; letter-spacing: -.3px; fill: #102b46; }
    .detail { font-size: 18px; fill: #344b61; }
    .badge { font-size: 13px; font-weight: 700; letter-spacing: 1px; fill: #31516d; }
  </style>
  <rect x="0.75" y="0.75" width="1278.5" height="326.5" rx="16" fill="#fff" stroke="#dfe8f1" stroke-width="1.5"/>
  <g transform="translate(72 35)" fill="#0b78db">
    <path d="M0 30 15 0h15L15 30Z"/>
    <path d="M21 30 36 0h15L36 30Z"/>
  </g>
  <text class="word" x="128" y="65">ExoRail</text>
  <line x1="274" y1="39" x2="274" y2="63" stroke="#c5d2de" stroke-width="1.5"/>
  <text class="category" x="293" y="58">AGENTIC DEVELOPMENT PLATFORM</text>
  <line x1="72" y1="85" x2="1208" y2="85" stroke="#e5edf5"/>
  <text class="hero" x="72" y="136">When Human-in-the-loop is not enough,</text>
  <text class="hero" x="72" y="182">you need <tspan fill="#b5762f">Human-in-the-project</tspan>.</text>
  <text class="tagline" x="72" y="224">Agents have sessions. Projects have lifecycles.</text>
  <text class="detail" x="72" y="256">Change the agent, model, harness or provider. Project intent, Results and decision history stay in the repository.</text>
  <g fill="#f4f8fc" stroke="#dfe7ef"><rect x="72" y="276" width="171" height="26" rx="13"/><rect x="253" y="276" width="163" height="26" rx="13"/><rect x="426" y="276" width="125" height="26" rx="13"/><rect x="561" y="276" width="337" height="26" rx="13"/></g>
  <text class="badge" x="85" y="294">REPOSITORY-NATIVE</text><text class="badge" x="266" y="294">HARNESS-NEUTRAL</text><text class="badge" x="439" y="294">LLM-NEUTRAL</text><text class="badge" x="574" y="294">PROJECT MEMORY · PAST / PRESENT / NEXT</text>
</svg>
